<?xml version="1.0" encoding="utf-8"?>
<!-- Generator: Adobe Illustrator 26.0.3, SVG Export Plug-In . SVG Version: 6.00 Build 0)  -->
<svg version="1.0" id="katman_1" xmlns="http://www.w3.org/2000/svg" xmlns:xlink="http://www.w3.org/1999/xlink" x="0px" y="0px"
	 viewBox="0 0 600 450" style="enable-background:new 0 0 600 450;" xml:space="preserve">
<style type="text/css">
	.st0{fill:#0AA9DF;}
	.st1{fill:#0884AF;}
	.st2{fill:#B0CB0A;}
	.st3{fill:#86B626;}
</style>
<g>
	<path d="M99.5,202.1H83.1v31.5c0,2.7,0.6,4.7,1.8,5.8c1.2,1.2,3.1,1.8,5.5,2c2.4,0.1,5.4,0.1,9-0.1v12.7
		c-10.9,1.3-18.7,0.4-23.4-2.8c-4.7-3.2-7.1-9.1-7.1-17.7v-31.5H56.8v-13.7h12.1v-14.2l14.2-4.2v18.4h16.3V202.1z"/>
	<path d="M159.7,188.4h14.2v65.6h-14.2v-9.5c-5.4,7.4-13,11.2-23,11.2c-9,0-16.8-3.4-23.2-10c-6.4-6.7-9.6-14.9-9.6-24.5
		c0-9.7,3.2-17.9,9.6-24.6c6.4-6.7,14.1-10,23.2-10c10,0,17.7,3.7,23,11V188.4z M124,236.3c3.9,4,8.9,6,14.9,6c6,0,10.9-2,14.9-6
		c3.9-4,5.9-9,5.9-15s-2-11-5.9-15c-3.9-4-8.9-6-14.9-6c-6,0-10.9,2-14.9,6c-3.9,4-5.9,9-5.9,15S120,232.3,124,236.3z"/>
	<path d="M295.2,188.4h14.2v65.6h-14.2v-9.5c-5.4,7.4-13,11.2-23,11.2c-9,0-16.8-3.4-23.2-10c-6.4-6.7-9.6-14.9-9.6-24.5
		c0-9.7,3.2-17.9,9.6-24.6c6.4-6.7,14.1-10,23.2-10c10,0,17.7,3.7,23,11V188.4z M259.6,236.3c3.9,4,8.9,6,14.9,6c6,0,10.9-2,14.9-6
		c3.9-4,5.9-9,5.9-15s-2-11-5.9-15c-3.9-4-8.9-6-14.9-6c-6,0-10.9,2-14.9,6c-3.9,4-5.9,9-5.9,15S255.6,232.3,259.6,236.3z"/>
	<path d="M360.6,186.7c9,0,16.8,3.4,23.2,10c6.4,6.7,9.6,14.9,9.6,24.5c0,9.7-3.2,17.9-9.6,24.6c-6.4,6.7-14.1,10-23.2,10
		c-10,0-17.7-3.7-23-11v35.6h-14.2v-91.9h14.2v9.5C342.9,190.5,350.6,186.7,360.6,186.7z M343.5,236.3c3.9,4,8.9,6,14.9,6
		c6,0,10.9-2,14.9-6c3.9-4,5.9-9,5.9-15c0-6-2-11-5.9-15c-3.9-4-8.9-6-14.9-6c-6,0-10.9,2-14.9,6c-3.9,4-5.9,9-5.9,15
		C337.5,227.3,339.5,232.3,343.5,236.3z"/>
	<path d="M455.8,188.4H470v65.6h-14.2v-9.5c-5.4,7.4-13,11.2-23,11.2c-9,0-16.8-3.4-23.2-10c-6.4-6.7-9.6-14.9-9.6-24.5
		c0-9.7,3.2-17.9,9.6-24.6c6.4-6.7,14.1-10,23.2-10c10,0,17.7,3.7,23,11V188.4z M420.1,236.3c3.9,4,8.9,6,14.9,6c6,0,10.9-2,14.9-6
		c3.9-4,5.9-9,5.9-15s-2-11-5.9-15c-3.9-4-8.9-6-14.9-6c-6,0-10.9,2-14.9,6c-3.9,4-5.9,9-5.9,15S416.2,232.3,420.1,236.3z"/>
	<path d="M528.3,188.4h15.1l-25.3,67.8c-6.3,17-17,25-32.1,24.2v-13.3c4.5,0.3,8.1-0.7,10.8-2.8c2.7-2.1,5-5.5,6.7-10l0.7-1.3
		l-27.9-64.5h15.5l19.6,47.7L528.3,188.4z"/>
	<path class="st0" d="M225.7,188.4l-9.5,13.4h0l-6.3,8.8c-3.2,4.4,0,10.5,5.4,10.5c2.2,0,4.2-1,5.4-2.8l14.7-20.5l6.8-9.4H225.7z"/>
	<path class="st1" d="M186.7,188.4v13.4h29.5l9.5-13.4H186.7z"/>
	<path class="st2" d="M204.7,240.7l1.8-2.6l4.6-6.4c3.2-4.4,0-10.6-5.5-10.6c-2.2,0-4.2,1-5.4,2.8l-14.9,20.7l-6.9,9.5h17
		L204.7,240.7L204.7,240.7z"/>
	<path class="st3" d="M236.7,240.7h-31.9l-9.3,13.4h41.2V240.7z"/>
</g>
</svg>
